<?xml version="1.0" standalone="no"?>
<!DOCTYPE svg PUBLIC "-//W3C//DTD SVG 20010904//EN"
 "http://www.w3.org/TR/2001/REC-SVG-20010904/DTD/svg10.dtd">
<svg version="1.0" xmlns="http://www.w3.org/2000/svg"
 width="152.000000pt" height="152.000000pt" viewBox="0 0 152.000000 152.000000"
 preserveAspectRatio="xMidYMid meet">

<g transform="translate(0.000000,152.000000) scale(0.100000,-0.100000)"
fill="#000000" stroke="none">
<path d="M812 1263 c-15 -3 -28 -17 -38 -44 l-16 -39 -36 30 c-35 29 -74 38
-98 22 -8 -4 21 -38 78 -91 49 -46 91 -81 93 -79 3 3 16 43 30 89 14 46 28 92
31 102 5 17 1 18 -44 10z"/>
<path d="M173 1129 c-18 -5 -33 -15 -33 -22 0 -7 47 -230 105 -497 58 -266
105 -486 105 -487 0 -1 8 -7 18 -12 27 -14 831 160 848 184 10 13 10 25 -1 56
-14 39 -14 40 11 49 14 6 31 10 39 10 8 0 16 4 19 8 3 5 -27 2 -67 -6 -71 -14
-376 -23 -354 -10 7 3 89 25 182 47 212 52 236 59 210 60 -11 0 -169 -30 -352
-67 -200 -41 -339 -65 -351 -61 -15 6 -26 30 -43 95 -26 99 -36 102 -15 4 7
-36 11 -70 9 -76 -2 -5 -17 -9 -33 -8 -22 1 -30 -3 -31 -14 -2 -36 -32 73
-200 721 -10 39 -15 41 -66 26z m894 -745 c-3 -3 -12 -4 -19 -1 -8 3 -5 6 6 6
11 1 17 -2 13 -5z"/>
<path d="M770 987 c0 -2 15 -16 33 -33 l32 -29 -29 33 c-28 30 -36 37 -36 29z"/>
<path d="M471 584 c0 -11 3 -14 6 -6 3 7 2 16 -1 19 -3 4 -6 -2 -5 -13z"/>
</g>
</svg>
